<svg xmlns="http://www.w3.org/2000/svg" viewBox="0 0 36 25.455" width="36" height="25.455"><g fill="#61DAFB"><path d="M28.491 12.678c0-1.39-1.74-2.707-4.409-3.523.616-2.72.342-4.883-.864-5.576a1.88 1.88 0 0 0-.958-.239v.954c.197 0 .355.038.487.111.582.334.834 1.604.637 3.237-.047.402-.124.825-.218 1.257a20.823 20.823 0 0 0-2.715-.466 20.868 20.868 0 0 0-1.779-2.138c1.394-1.296 2.702-2.005 3.592-2.005v-.955c-1.176 0-2.715.838-4.272 2.292-1.556-1.445-3.096-2.275-4.272-2.275v.954c.885 0 2.198.706 3.592 1.993a20.242 20.242 0 0 0-1.766 2.134c-.966.103-1.881.261-2.72.47a12.91 12.91 0 0 1-.222-1.24c-.201-1.633.047-2.903.624-3.241a.95.95 0 0 1 .492-.111v-.954a1.91 1.91 0 0 0-.966.239c-1.202.693-1.471 2.852-.851 5.563-2.66.821-4.391 2.134-4.391 3.519 0 1.39 1.74 2.707 4.409 3.523-.616 2.72-.342 4.883.864 5.576.278.162.603.239.962.239 1.176 0 2.715-.838 4.272-2.292 1.556 1.445 3.096 2.275 4.272 2.275.359 0 .684-.077.966-.239 1.202-.693 1.471-2.852.851-5.563 2.651-.817 4.383-2.134 4.383-3.519zm-5.567-2.852c-.158.552-.355 1.12-.577 1.689a23.05 23.05 0 0 0-1.176-2.027c.607.09 1.193.201 1.753.338zm-1.958 4.554a22.775 22.775 0 0 1-1.031 1.633 22.09 22.09 0 0 1-3.857.005 23.754 23.754 0 0 1-1.035-1.625c-.325-.56-.62-1.129-.889-1.702a22.775 22.775 0 0 1 1.916-3.339 22.09 22.09 0 0 1 3.857-.005c.355.509.701 1.052 1.035 1.625.325.56.62 1.129.889 1.702a23.62 23.62 0 0 1-.885 1.706zm1.381-.556c.231.573.428 1.146.59 1.702-.56.137-1.15.252-1.762.342a23.5 23.5 0 0 0 1.172-2.044zm-4.336 4.563a17.833 17.833 0 0 1-1.189-1.368c.385.017.778.03 1.176.03.402 0 .8-.009 1.189-.03-.385.5-.783.958-1.176 1.368zm-3.181-2.519a19.305 19.305 0 0 1-1.753-.338c.158-.552.355-1.12.577-1.689.175.342.359.684.56 1.026.201.342.406.676.616 1.001zm3.159-8.898c.398.411.795.868 1.189 1.368-.385-.017-.778-.03-1.176-.03-.402 0-.8.009-1.189.03.385-.5.783-.958 1.176-1.368zm-3.164 2.519a23.5 23.5 0 0 0-1.172 2.039 18.147 18.147 0 0 1-.59-1.702c.56-.133 1.15-.248 1.762-.338zm-3.87 5.354c-1.514-.646-2.493-1.492-2.493-2.164 0-.671.979-1.522 2.493-2.164.368-.158.77-.299 1.184-.432.244.838.564 1.71.962 2.604a20.2 20.2 0 0 0-.949 2.591 13.213 13.213 0 0 1-1.197-.436zm2.301 6.11c-.582-.334-.834-1.604-.637-3.237.047-.402.124-.825.218-1.257.838.205 1.753.363 2.715.466a20.868 20.868 0 0 0 1.779 2.138c-1.394 1.296-2.702 2.005-3.592 2.005a1.025 1.025 0 0 1-.483-.115zm10.143-3.258c.201 1.633-.047 2.903-.624 3.241a.95.95 0 0 1-.492.111c-.885 0-2.198-.706-3.592-1.993a20.242 20.242 0 0 0 1.766-2.134 20.151 20.151 0 0 0 2.72-.47c.098.432.175.847.222 1.244zm1.646-2.852c-.368.158-.77.299-1.184.432a20.548 20.548 0 0 0-.962-2.604 20.2 20.2 0 0 0 .949-2.591c.423.133.825.278 1.202.436 1.514.646 2.493 1.492 2.493 2.164-.004.671-.983 1.522-2.497 2.164zM13.718 3.352z"/><path d="M19.952 12.678a1.954 1.954 0 0 1-1.954 1.955 1.954 1.954 0 0 1-1.954-1.955 1.954 1.954 0 0 1 3.908 0zm2.305-9.338z"/></g></svg>
